REM DIRINDEX 1\2,1\3,1\4,1\5\6,1\5\7,1\8
REM DIRNAME cjc115,folder01,folder02,folder03,folder04,folder05,folder06,folder07
TITLE ""
FILE "026 【026】Unit2 (0289 coalition_0300 heed).mp3" MP3
  TRACK 01 AUDIO
    TITLE "0:"
    INDEX 01 00:00:00
  TRACK 02 AUDIO
    TITLE "2:cjc115_0982"
    INDEX 01 00:00:07
  TRACK 03 AUDIO
    TITLE "0:"
    INDEX 01 00:01:34
  TRACK 04 AUDIO
    TITLE "3:cjc115_0983"
    INDEX 01 00:01:44
  TRACK 05 AUDIO
    TITLE "0:"
    INDEX 01 00:03:57
  TRACK 06 AUDIO
    TITLE "4:cjc115_0984"
    INDEX 01 00:03:66
  TRACK 07 AUDIO
    TITLE "0:"
    INDEX 01 00:07:23
  TRACK 08 AUDIO
    TITLE "2:cjc115_0985"
    INDEX 01 00:08:32
  TRACK 09 AUDIO
    TITLE "0:"
    INDEX 01 00:09:51
  TRACK 10 AUDIO
    TITLE "3:cjc115_0986"
    INDEX 01 00:09:59
  TRACK 11 AUDIO
    TITLE "0:"
    INDEX 01 00:12:20
  TRACK 12 AUDIO
    TITLE "4:cjc115_0987"
    INDEX 01 00:12:32
  TRACK 13 AUDIO
    TITLE "0:"
    INDEX 01 00:16:00
  TRACK 14 AUDIO
    TITLE "2:cjc115_0988"
    INDEX 01 00:17:10
  TRACK 15 AUDIO
    TITLE "0:"
    INDEX 01 00:18:37
  TRACK 16 AUDIO
    TITLE "3:cjc115_0989"
    INDEX 01 00:18:46
  TRACK 17 AUDIO
    TITLE "0:"
    INDEX 01 00:21:06
  TRACK 18 AUDIO
    TITLE "4:cjc115_0990"
    INDEX 01 00:21:11
  TRACK 19 AUDIO
    TITLE "0:"
    INDEX 01 00:25:31
  TRACK 20 AUDIO
    TITLE "2:cjc115_0991"
    INDEX 01 00:26:40
  TRACK 21 AUDIO
    TITLE "0:"
    INDEX 01 00:27:69
  TRACK 22 AUDIO
    TITLE "3:cjc115_0992"
    INDEX 01 00:28:04
  TRACK 23 AUDIO
    TITLE "0:"
    INDEX 01 00:29:40
  TRACK 24 AUDIO
    TITLE "4:cjc115_0993"
    INDEX 01 00:29:48
  TRACK 25 AUDIO
    TITLE "0:"
    INDEX 01 00:33:26
  TRACK 26 AUDIO
    TITLE "2:cjc115_0994"
    INDEX 01 00:34:38
  TRACK 27 AUDIO
    TITLE "0:"
    INDEX 01 00:35:64
  TRACK 28 AUDIO
    TITLE "3:cjc115_0995"
    INDEX 01 00:35:74
  TRACK 29 AUDIO
    TITLE "0:"
    INDEX 01 00:37:18
  TRACK 30 AUDIO
    TITLE "4:cjc115_0996"
    INDEX 01 00:37:26
  TRACK 31 AUDIO
    TITLE "0:"
    INDEX 01 00:41:57
  TRACK 32 AUDIO
    TITLE "2:cjc115_0997"
    INDEX 01 00:42:65
  TRACK 33 AUDIO
    TITLE "0:"
    INDEX 01 00:44:05
  TRACK 34 AUDIO
    TITLE "3:cjc115_0998"
    INDEX 01 00:44:14
  TRACK 35 AUDIO
    TITLE "0:"
    INDEX 01 00:45:51
  TRACK 36 AUDIO
    TITLE "4:cjc115_0999"
    INDEX 01 00:45:61
  TRACK 37 AUDIO
    TITLE "0:"
    INDEX 01 00:49:45
  TRACK 38 AUDIO
    TITLE "2:cjc115_1000"
    INDEX 01 00:50:54
  TRACK 39 AUDIO
    TITLE "0:"
    INDEX 01 00:51:71
  TRACK 40 AUDIO
    TITLE "3:cjc115_1001"
    INDEX 01 00:52:08
  TRACK 41 AUDIO
    TITLE "0:"
    INDEX 01 00:54:38
  TRACK 42 AUDIO
    TITLE "4:cjc115_1002"
    INDEX 01 00:54:50
  TRACK 43 AUDIO
    TITLE "0:"
    INDEX 01 00:59:59
  TRACK 44 AUDIO
    TITLE "2:cjc115_1003"
    INDEX 01 01:00:68
  TRACK 45 AUDIO
    TITLE "0:"
    INDEX 01 01:02:22
  TRACK 46 AUDIO
    TITLE "3:cjc115_1004"
    INDEX 01 01:02:30
  TRACK 47 AUDIO
    TITLE "0:"
    INDEX 01 01:03:51
  TRACK 48 AUDIO
    TITLE "4:cjc115_1005"
    INDEX 01 01:03:59
  TRACK 49 AUDIO
    TITLE "0:"
    INDEX 01 01:08:40
  TRACK 50 AUDIO
    TITLE "2:cjc115_1006"
    INDEX 01 01:09:52
  TRACK 51 AUDIO
    TITLE "0:"
    INDEX 01 01:11:09
  TRACK 52 AUDIO
    TITLE "3:cjc115_1007"
    INDEX 01 01:11:17
  TRACK 53 AUDIO
    TITLE "0:"
    INDEX 01 01:13:51
  TRACK 54 AUDIO
    TITLE "4:cjc115_1008"
    INDEX 01 01:13:59
  TRACK 55 AUDIO
    TITLE "0:"
    INDEX 01 01:17:28
  TRACK 56 AUDIO
    TITLE "2:cjc115_1009"
    INDEX 01 01:18:39
  TRACK 57 AUDIO
    TITLE "0:"
    INDEX 01 01:19:68
  TRACK 58 AUDIO
    TITLE "3:cjc115_1010"
    INDEX 01 01:19:74
  TRACK 59 AUDIO
    TITLE "0:"
    INDEX 01 01:22:37
  TRACK 60 AUDIO
    TITLE "4:cjc115_1011"
    INDEX 01 01:22:46
  TRACK 61 AUDIO
    TITLE "0:"
    INDEX 01 01:26:44
  TRACK 62 AUDIO
    TITLE "2:cjc115_1012"
    INDEX 01 01:27:51
  TRACK 63 AUDIO
    TITLE "0:"
    INDEX 01 01:28:74
  TRACK 64 AUDIO
    TITLE "3:cjc115_1013"
    INDEX 01 01:29:09
  TRACK 65 AUDIO
    TITLE "0:"
    INDEX 01 01:31:34
  TRACK 66 AUDIO
    TITLE "4:cjc115_1014"
    INDEX 01 01:31:43
  TRACK 67 AUDIO
    TITLE "0:"
    INDEX 01 01:35:49
  TRACK 68 AUDIO
    TITLE "2:cjc115_1015"
    INDEX 01 01:36:54
  TRACK 69 AUDIO
    TITLE "0:"
    INDEX 01 01:37:60
  TRACK 70 AUDIO
    TITLE "3:cjc115_1016"
    INDEX 01 01:37:69
  TRACK 71 AUDIO
    TITLE "0:"
    INDEX 01 01:41:10
  TRACK 72 AUDIO
    TITLE "4:cjc115_1017"
    INDEX 01 01:41:18
  TRACK 73 AUDIO
    TITLE "0:"
    INDEX 01 01:43:64
